<svg xmlns="http://www.w3.org/2000/svg" width="298" height="116" viewBox="0 0 298 116" fill="none">
  <path d="M99.9854 109.42C59.0228 104.615 33.7095 97.2277 19.1474 87.0445C11.9218 81.9917 7.38658 76.2791 4.86379 69.8636C2.33238 63.4261 1.76569 56.1238 2.7412 47.8069C3.66087 39.9661 8.36725 32.763 16.472 26.4645C24.5845 20.1599 35.9775 14.869 49.9175 10.8955C77.7885 2.95101 115.445 0.384735 156.25 5.17085C197.055 9.95697 233.095 21.1674 258.372 35.3457C271.014 42.4372 280.873 50.2208 287.307 58.2315C293.734 66.2345 296.646 74.3312 295.726 82.172C294.862 89.5389 288.086 95.8174 275.864 100.839C263.778 105.805 247.062 109.24 227.767 111.324C189.211 115.491 140.876 114.216 99.9854 109.42Z" stroke="white" stroke-width="4"/>
</svg>