<svg id="Layer_1" data-name="Layer 1" xmlns="http://www.w3.org/2000/svg" viewBox="0 0 4403.38 5467.63"><defs><style>.cls-1{fill:#64fff7;}</style></defs><path class="cls-1" d="M2591.29,3506q433.36,0,866.72,0c336.86.27,589.07,217.28,638.78,549.26,1.57,10.49,4.79,21.62,2.87,31.61-12.62,65.6,21.54,95.14,79.25,113.92,46.52,15.14,90.84,37.55,135.18,58.7,54.25,25.88,81.28,68.89,80.93,130.35q-1.4,251.18,0,502.36c.4,63.05-26.64,107-83,133-56.72,26.12-114.7,49.56-170.83,76.84-17.72,8.61-35.84,23-46,39.53C3973.37,5340.18,3798,5450,3563.81,5455.66c-182.29,4.41-364.77.87-547.16,1.18-91.86.16-160-43.6-212.08-115.13-26.54-36.46-48.78-76-74.41-113.16-18.79-27.25-37.31-55.5-60.56-78.71-48.08-48-116.49-47.12-163.32,2.07-22.63,23.77-40.37,52.5-58.43,80.21-23.18,35.58-43,73.42-66.85,108.49-53.27,78.19-127.45,117.05-223.16,116.54-175.73-.94-351.51,1.67-527.21-.74-240.72-3.31-421.37-112.36-546.14-316.86-8.9-14.59-24.19-28-39.67-35.4-55.14-26.29-111.74-49.51-167.61-74.3-62.27-27.62-93-73.38-92.08-143.77q3.17-243.16,0-486.39c-1-72,29.81-118.55,94-146.42,57.29-24.86,115.3-48.32,171-76.29,13.83-6.94,28.36-28.8,28.6-44,5.68-357.05,275.7-625.61,633.82-626.74C2005.49,3505.28,2298.39,3506,2591.29,3506Zm-7.48,415.33c-320.83,0-641.66-.52-962.49.16-265,.56-494.64,200.48-516.52,463.76-13.38,161-15.11,324.59-3.44,485.67,21.18,292.48,246.28,491.3,541.05,492.79,158.41.8,316.94-3.36,475.21,1.45,96.56,2.93,163-35.6,211.29-115.13,26.17-43.13,52.9-86,81.67-127.46,27.84-40.08,62.61-74.13,113.29-82.06,112.94-17.68,208.44,5.74,268.66,114.84,24.95,45.2,54.93,87.86,85.16,129.85,36.19,50.28,85.52,78.65,149.19,78.6,177-.13,354.19,3.34,531.14-1,279-6.85,494.38-199.16,518.76-476,14.28-162.07,2.82-326.41,2.38-489.73,0-15.79-3.07-31.76-6.27-47.33-52-253.13-259.76-426.4-518.63-427.9C3230.8,3920,2907.3,3921.42,2583.81,3921.34ZM3989.86,4004c-3.61-15.31-5-22.87-7.17-30.22-65.84-225.7-270.79-374-521.45-374.33q-870.81-1.08-1741.62-.24c-78,0-153.77,11.79-225.45,43.87-156.5,70.06-256,188.31-303.06,354,4.75-.27,6.18.1,6.87-.45q13.92-11.16,27.66-22.56c114.82-94.84,246.28-146.84,395.71-147q968.67-1.05,1937.35,1.06c62.74.21,126.65,14.72,187.83,30.85C3837.77,3883,3914.51,3935.94,3989.86,4004Zm-2978.13,294.2c-33.94,15.45-74.28,31.59-112,52.45-10.39,5.75-18.2,25.58-18.29,39q-1.83,252.78,0,505.56c.1,13.35,8.56,33,19.14,38.78,37.73,20.76,78.06,36.81,111.28,51.87-2.92-114.69-8-228.18-8.06-341.67C1003.81,4529.46,1008.86,4414.69,1011.73,4298.21Zm3152.83,1.32c20.18,229.78,21.33,457-1.14,688.88,34.61-15.32,69.14-30.94,104-45.88,25.07-10.76,33.73-27.91,33.4-56-1.59-134.19-.71-268.4-.71-402.61,0-136.13,0-136.14-128.65-184.27C4169.12,4298.78,4166.24,4299.53,4164.56,4299.53Z"/><path class="cls-1" d="M2590.15,4133.47c-47.92,0-95.83.13-143.75,0-32.74-.08-55.54-14.15-54.44-49,1-32.84,23.77-44.28,54.72-44.15,97.16.38,194.33.14,291.49.16,31.19,0,52.35,13.18,52.38,46.36,0,33.47-22.09,46.18-52.66,46.45C2688.65,4133.75,2639.4,4133.43,2590.15,4133.47Z"/></svg>